<svg version="1.2" xmlns="http://www.w3.org/2000/svg" viewBox="0 0 544 140" width="544" height="140">
	<title>logo_mob-svg</title>
	<style>
		.s0 { fill: #ffffff } 
	</style>
	<path id="Layer" fill-rule="evenodd" class="s0" d="m47.1 73.4h-8.6v31.9h-8.3v-75.4q3.8-0.4 8.3-0.6 4.5-0.2 8.9-0.2 5.3 0 9.2 1.4 3.9 1.4 6.5 4 2.5 2.7 3.8 6.5 1.2 3.9 1.2 8.7 0 4.8-1 8.4-1 3.7-2.8 6.4-1.7 2.7-4 4.6-2.4 2-5 3.2 2.8 5.9 5.3 11.1 2.5 5.3 5.1 9.3 2.6 4 5.2 6.4 2.6 2.4 5.6 2.4h0.6v3.3q-1.3 0.6-3.4 1-2 0.3-4.1 0.3-2.9 0-5-1-2.1-1-4.1-3.7-2-2.8-4.3-7.7-2.3-4.9-5.7-12.6zm-6-5.2q5.5 0 9-0.9 3.5-0.8 5.4-2.2 0.8-0.7 1.5-1.8 0.7-1.1 1.2-2.8 0.5-1.8 0.8-4.3 0.3-2.4 0.3-5.9 0-4.4-1-7.4-1.1-3.1-3-5-1.9-1.9-4.6-2.8-2.7-0.9-6.1-0.9-1.8 0-3 0.1-1.3 0.1-3.1 0.4v33.5c0 0 2.6 0 2.6 0zm74.8 31.8q1.6 0 4.3-0.8v3.1q-2 1.3-4.2 2.5-2.3 1.1-4.8 1.1-1.4 0-2.4-0.5-1-0.6-1.7-1.5-0.6-0.9-1.1-2-0.4-1.1-0.7-2.2-1.5 1.2-2.9 2.4-1.5 1.2-3 2.1-1.6 0.9-3.4 1.5-1.8 0.5-4 0.5-5 0-7.9-3.4-2.9-3.4-2.9-10.4 0-3.6 0.9-6.4 0.9-2.8 2.8-4.7 1.9-1.8 4.9-2.8 3-1 7.4-1.1l7.4-0.3v-8.9q0-4.2-1.4-6.2-1.4-2-4.6-2-2.3 0-5.6 1.1-3.4 1.1-6.6 2.8l-1.4-4.7q1.9-1 4-2 2.1-1 4.3-1.8 2.2-0.7 4.5-1.2 2.2-0.5 4.4-0.5 2.5 0 4.4 0.7 2 0.6 3.3 2.2 1.3 1.6 2 4.2 0.7 2.6 0.7 6.5v24.1q0 8.6 3.3 8.6zm-11.1-3.7q0-0.4-0.1-4.3-0.1-3.8-0.1-10.9-6.5 0-9.9 1-3.3 1-4.1 2.1-0.7 0.9-1 2.7-0.3 1.8-0.3 4.1 0 4.2 1.1 6.5 1.2 2.2 3.9 2.2 2.9 0 5.4-0.8 2.4-0.8 5.1-2.6zm51.1 9v-35.1q0-1.8-0.2-3.6-0.2-1.7-1-3.1-0.7-1.3-2.1-2.2-1.4-0.9-3.7-0.9-1.5 0-3.2 0.5-1.7 0.4-3.4 1.1-1.7 0.6-3.3 1.5-1.6 0.9-3 1.8v40h-8v-50.5h6.7l1.2 5.9h0.1q1.4-0.9 3.2-2.2 1.8-1.2 3.9-2.3 2.1-1 4.3-1.8 2.3-0.7 4.6-0.7 2.6 0 4.8 0.9 2.2 0.9 3.8 2.8 1.6 1.9 2.5 4.7 0.9 2.7 0.9 6.5v36.7c0 0-8.1 0-8.1 0zm82.1-51.6q2.6 0 5.2 1 2.5 0.9 4.7 3.2 2.1 2.2 3.7 5.9 1.5 3.8 2.3 9.3v0.6q-0.5 0.8-1.5 1.5-0.9 0.6-2.4 1.2-1.5 0.5-3.6 0.9-2.2 0.4-5.2 0.6l-13.2 1.1v3.2q0 8.9 2.5 13 2.6 4 7.8 4 2.1 0 4.4-0.5 2.3-0.5 4.4-1.2 2-0.8 3.7-1.6 1.7-0.7 2.7-1.3l1 2.9q-1.7 1.4-3.9 2.9-2.1 1.6-4.6 2.9-2.5 1.2-5.2 2.1-2.7 0.8-5.5 0.8-3.4 0-6.3-1.3-2.9-1.3-5-4.3-2.2-2.9-3.4-7.7-1.2-4.7-1.2-11.5 0-7.6 1.4-12.9 1.4-5.4 3.9-8.6 2.5-3.2 5.9-4.7 3.4-1.5 7.4-1.5zm-6.8 7.3q-0.6 0.6-1.2 1.9-0.6 1.3-1 3.1-0.4 1.8-0.7 3.9-0.2 2.2-0.2 4.4l17-0.9q-0.3-2.5-0.9-5.1-0.5-2.5-1.5-4.5-1-2-2.5-3.2-1.5-1.3-3.6-1.3-1.4 0-2.8 0.4-1.4 0.3-2.6 1.3zm94.7 44.3v-35.1h-33.5v35.1h-8.3v-75.6h8.3v34.9h33.5v-34.9h8.3v75.6c0 0-8.3 0-8.3 0zm40.4 0.9q-9.6 0-14.7-6.6-5.1-6.7-5.1-19.6 0-6 1.3-10.9 1.2-4.9 3.7-8.3 2.5-3.4 6.2-5.3 3.7-1.8 8.6-1.8 4.8 0 8.5 1.7 3.7 1.8 6.2 5.1 2.5 3.4 3.7 8.3 1.3 4.8 1.3 11.1 0 6.1-1.3 11-1.2 4.9-3.7 8.3-2.5 3.4-6.2 5.2-3.7 1.8-8.5 1.8zm-11.3-26.2q0 5.5 0.7 9.4 0.6 3.9 1.9 6.4 1.4 2.5 3.5 3.7 2.1 1.2 5.1 1.2 2.4 0 4.2-0.6 1.8-0.6 3.6-2.2 2-1.9 2.8-6.7 0.7-4.7 0.7-11.2 0-10.7-2.7-15.7-2.6-5-8.4-5-2.4 0-4.3 0.6-1.8 0.6-3.5 2.1-1 0.8-1.7 2.7-0.6 1.8-1.1 4.2-0.4 2.4-0.6 5.2-0.2 2.9-0.2 5.9zm42.9-19.7l-4.5-0.6v-2.8l10.7-11h1.6l0.2 8.9h11.2l-0.6 4.5q-1.5 0.2-3.3 0.4-1.8 0.2-3.4 0.3-1.9 0.3-3.8 0.3v32.9q0 2.7 0.8 4.5 0.8 1.8 3.5 1.8 1.4 0 3.4 0 2-0.1 3.7-0.3v3.5q-0.9 0.5-2.3 1.1-1.4 0.6-3 1.2-1.7 0.5-3.4 0.9-1.6 0.3-3.1 0.3-1.3 0-2.7-0.4-1.3-0.4-2.4-1.5-1.1-1.1-1.8-3.1-0.8-2-0.8-5.3c0 0 0-35.6 0-35.6zm43.7-6.6q2.7 0 5.2 1 2.6 0.9 4.7 3.2 2.1 2.2 3.7 5.9 1.6 3.8 2.3 9.3v0.6q-0.5 0.8-1.4 1.5-1 0.6-2.4 1.2-1.5 0.5-3.7 0.9-2.2 0.4-5.2 0.6l-13.2 1.1v3.2q0 8.9 2.5 13 2.6 4 7.8 4 2.1 0 4.4-0.5 2.3-0.5 4.4-1.2 2.1-0.8 3.8-1.6 1.7-0.7 2.6-1.3l1 2.9q-1.7 1.4-3.8 2.9-2.2 1.6-4.7 2.9-2.4 1.2-5.1 2.1-2.7 0.8-5.6 0.8-3.4 0-6.3-1.3-2.9-1.3-5-4.3-2.2-2.9-3.4-7.7-1.2-4.7-1.2-11.5 0-7.6 1.4-12.9 1.5-5.4 4-8.6 2.5-3.2 5.9-4.7 3.3-1.5 7.3-1.5zm-6.7 7.3q-0.7 0.6-1.3 1.9-0.5 1.3-1 3.1-0.4 1.8-0.6 3.9-0.3 2.2-0.3 4.4l17-0.9q-0.3-2.5-0.8-5.1-0.6-2.5-1.6-4.5-1-2-2.5-3.2-1.4-1.3-3.6-1.3-1.4 0-2.8 0.4-1.4 0.3-2.5 1.3zm34.1 44.3v-82.8l8-2.5v85.3zm47.7-15.9q0 3.8-1 6.5-1.1 2.7-2.8 4.7-0.9 1.1-2.1 2.2-1.1 1-2.5 1.8-1.5 0.8-3.2 1.2-1.8 0.4-4 0.4-4.1 0-7.4-1.1-3.3-1.1-6.3-3.5l2.4-6.9q1.3 1.1 2.8 2.1 1.5 1 3.1 1.8 1.7 0.9 3.4 1.4 1.7 0.5 3.6 0.5 2 0 3.4-0.4 1.5-0.4 2.5-1.2 0.9-0.8 1.5-2.4 0.6-1.5 0.6-4.4 0-2.5-1.6-4.2-1.6-1.6-4-2.8-2.4-1.1-5.2-2.3-2.9-1.2-5.3-3-2.4-1.7-4-4.4-1.6-2.7-1.6-7 0-3.2 1.1-5.4 1-2.3 2.6-4.2 2.1-2.4 4.7-3.7 2.7-1.4 5.9-1.4 2.6 0 5.4 0.4 2.9 0.4 5.4 0.9l-1.2 7.3q-1.2-0.3-2.6-0.7-1.4-0.4-2.9-0.7-1.6-0.3-3-0.4-1.4-0.2-2.4-0.2-2.4 0-3.7 0.3-1.3 0.3-2 1-0.7 0.6-1 1.7-0.4 1-0.4 2.8 0 2.4 1.7 3.8 1.6 1.5 4 2.7 2.4 1.2 5.2 2.4 2.8 1.2 5.3 3 2.4 1.8 4 4.5 1.6 2.7 1.6 6.9zm-339-4q-2-4.3-2-10.9 0-4.8 1.2-8.7 1.2-3.8 3.4-6.5 2.2-2.7 5.2-4.2 3-1.4 6.5-1.4 2.9 0 5.2 0.4 2.2 0.5 4.4 1.3 2.8-0.2 6.1-0.6 3.2-0.4 5.6-1.1l-0.9 5.1q-1.3 0.6-3.3 0.9-2.1 0.4-3.8 0.4 1 2.2 1.7 5.3 0.7 3.1 0.7 8.1 0 4.9-1.3 8.7-1.3 3.7-3.6 6.3-2.3 2.5-5.3 3.8-3.1 1.2-6.6 1.2-1.2 0-2.8-0.1-1.7-0.1-2.6-0.4-0.4 1-0.8 2.9-0.5 1.9-0.5 3.8 0 2.3 1.7 3.1 1.8 0.9 4.3 0.9h8.7q4 0 6.7 0.7 2.7 0.8 4.4 2.5 1.7 1.6 2.4 4.1 0.5 1.7 0.6 3.8c0 0 0 0 0.2 2.6 0.2 2.4 1.4 4 1.6 4.1 0 0 2.7 6.6 22.2 3.7 19.1-2.9 24.4-12.6 24.4-12.6l1.6 1.8c-9.3 14.7-32.4 15.8-43.6 15.3-12-0.4-14.6-11.9-14.7-12.4-0.1-1.4-0.6-2.4-1.3-3q-1.1-0.7-2.8-1 0 0 0 0-1.4-0.3-3.2-0.3h-6.5q-7-0.1-10.2-2.4-3.2-2.2-3.2-7.3 0-1.5 0.5-3 0.5-1.6 1.3-3 0.8-1.5 1.8-2.8 1-1.4 1.9-2.5-3.2-2.4-5.3-6.6zm5.4-11.6q0 2.9 0.6 5.5 0.6 2.6 1.7 4.6 1 2 2.5 3.2 1.5 1.2 3.2 1.2 4.1 0 6.6-2.1 1.2-1 1.9-4 0.6-3 0.6-8.6 0-3.1-0.5-5.8-0.6-2.7-1.8-4.6-1.2-2-2.8-3.1-1.6-1.1-3.7-1.1-3.8 0-5.9 1.9-2.4 2.2-2.4 12.9z"/>
</svg>