<svg version="1.2" xmlns="http://www.w3.org/2000/svg" viewBox="0 0 550 344" width="550" height="344">
	<title>Windsor-logo</title>
	<style>
		tspan { white-space:pre } 
		.s0 { fill: none;stroke: #231f20;stroke-linecap: round;stroke-linejoin: round;stroke-width: 6 } 
		.s1 { fill: #231f20 } 
		.s2 { fill: none;stroke: #231f20;stroke-miterlimit:10;stroke-width: 6 } 
		.s3 { fill: none;stroke: #231f20;stroke-linecap: round;stroke-linejoin: round;stroke-width: 4 } 
	</style>
	<filter id="f0">
		<feFlood flood-color="#f4efe6" flood-opacity="1" />
		<feBlend mode="normal" in2="SourceGraphic"/>
		<feComposite in2="SourceAlpha" operator="in" />
	</filter>
	<g id="Logo Creme" filter="url(#f0)">
		<filter id="f1">
			<feFlood flood-color="#222d1c" flood-opacity="1" />
			<feBlend mode="normal" in2="SourceGraphic"/>
			<feComposite in2="SourceAlpha" operator="in" />
		</filter>
		<g id="OBJECTS" filter="url(#f1)">
			<g id="&lt;Group&gt;">
				<path id="&lt;Path&gt;" class="s0" d="m126 296.6c-53.1-26.3-87-66.3-87-111.2 0-22.3 8.4-43.4 23.3-62.2"/>
				<path id="&lt;Path&gt;" class="s0" d="m42.1 162.1h27.4c0-11 8.9-20 20-20 11 0 20 9 20 20 0 7-3.6 13.2-9 16.7h26.3"/>
				<path id="&lt;Path&gt;" class="s0" d="m64.3 122.1c11.1 0 20 9 20 20"/>
				<path id="&lt;Path&gt;" class="s0" d="m68.6 198.6h-28.6"/>
			</g>
			<g id="&lt;Group&gt;">
				<g id="&lt;Group&gt;">
					<path id="&lt;Path&gt;" class="s0" d="m163.2 116.8v163.7"/>
					<g id="&lt;Group&gt;">
						<path id="&lt;Path&gt;" class="s0" d="m163.2 116.8c0 0-2.3 14.2-15.9 20.7"/>
						<path id="&lt;Path&gt;" class="s0" d="m163.2 137.5c0 0-2.3 14.2-15.9 20.6"/>
						<path id="&lt;Path&gt;" class="s0" d="m163.2 158.1c0 0-2.3 14.3-15.9 20.7"/>
						<path id="&lt;Path&gt;" class="s0" d="m163.2 178.8c0 0-2.3 14.3-15.9 20.7"/>
						<path id="&lt;Path&gt;" class="s0" d="m163.2 199.5c0 0-2.3 14.2-15.9 20.7"/>
						<path id="&lt;Path&gt;" class="s0" d="m163.2 220.2c0 0-2.3 14.2-15.9 20.7"/>
						<path id="&lt;Path&gt;" class="s0" d="m163.2 240.9c0 0-2.3 14.2-15.9 20.7"/>
					</g>
					<g id="&lt;Group&gt;">
						<path id="&lt;Path&gt;" class="s0" d="m163.2 116.8c0 0 2.3 14.2 15.9 20.7"/>
						<path id="&lt;Path&gt;" class="s0" d="m163.2 137.5c0 0 2.3 14.2 15.9 20.6"/>
						<path id="&lt;Path&gt;" class="s0" d="m163.2 158.1c0 0 2.3 14.3 15.9 20.7"/>
						<path id="&lt;Path&gt;" class="s0" d="m163.2 178.8c0 0 2.3 14.3 15.9 20.7"/>
						<path id="&lt;Path&gt;" class="s0" d="m163.2 199.5c0 0 2.3 14.2 15.9 20.7"/>
						<path id="&lt;Path&gt;" class="s0" d="m163.2 220.2c0 0 2.3 14.2 15.9 20.7"/>
						<path id="&lt;Path&gt;" class="s0" d="m163.2 240.9c0 0 2.3 14.2 15.9 20.7"/>
					</g>
				</g>
				<g id="&lt;Group&gt;">
					<g id="&lt;Group&gt;">
						<path id="&lt;Path&gt;" class="s0" d="m114 198.6v90"/>
						<g id="&lt;Group&gt;">
							<path id="&lt;Path&gt;" class="s0" d="m114 198.6c0 0 2.3 14.2 15.9 20.7"/>
							<path id="&lt;Path&gt;" class="s0" d="m114 219.3c0 0 2.3 14.2 15.9 20.7"/>
							<path id="&lt;Path&gt;" class="s0" d="m114 240c0 0 2.3 14.2 15.9 20.7"/>
						</g>
					</g>
					<g id="&lt;Group&gt;">
						<path id="&lt;Path&gt;" class="s0" d="m114 198.6c0 0-2.3 14.2-15.9 20.7"/>
						<path id="&lt;Path&gt;" class="s0" d="m114 219.3c0 0-2.3 14.2-15.9 20.7"/>
						<path id="&lt;Path&gt;" class="s0" d="m114 240c0 0-2.3 14.2-15.9 20.7"/>
					</g>
				</g>
				<g id="&lt;Group&gt;">
					<path id="&lt;Path&gt;" class="s0" d="m385.7 116.8v163.7"/>
					<g id="&lt;Group&gt;">
						<path id="&lt;Path&gt;" class="s0" d="m385.7 116.8c0 0 2.3 14.2 15.9 20.7"/>
						<path id="&lt;Path&gt;" class="s0" d="m385.7 137.5c0 0 2.3 14.2 15.9 20.6"/>
						<path id="&lt;Path&gt;" class="s0" d="m385.7 158.1c0 0 2.3 14.3 15.9 20.7"/>
						<path id="&lt;Path&gt;" class="s0" d="m385.7 178.8c0 0 2.3 14.3 15.9 20.7"/>
						<path id="&lt;Path&gt;" class="s0" d="m385.7 199.5c0 0 2.3 14.2 15.9 20.7"/>
						<path id="&lt;Path&gt;" class="s0" d="m385.7 220.2c0 0 2.3 14.2 15.9 20.7"/>
						<path id="&lt;Path&gt;" class="s0" d="m385.7 240.9c0 0 2.3 14.2 15.9 20.7"/>
					</g>
					<g id="&lt;Group&gt;">
						<path id="&lt;Path&gt;" class="s0" d="m385.7 116.8c0 0-2.3 14.2-15.9 20.7"/>
						<path id="&lt;Path&gt;" class="s0" d="m385.7 137.5c0 0-2.3 14.2-15.9 20.6"/>
						<path id="&lt;Path&gt;" class="s0" d="m385.7 158.1c0 0-2.3 14.3-15.9 20.7"/>
						<path id="&lt;Path&gt;" class="s0" d="m385.7 178.8c0 0-2.3 14.3-15.9 20.7"/>
						<path id="&lt;Path&gt;" class="s0" d="m385.7 199.5c0 0-2.3 14.2-15.9 20.7"/>
						<path id="&lt;Path&gt;" class="s0" d="m385.7 220.2c0 0-2.3 14.2-15.9 20.7"/>
						<path id="&lt;Path&gt;" class="s0" d="m385.7 240.9c0 0-2.3 14.2-15.9 20.7"/>
					</g>
				</g>
				<g id="&lt;Group&gt;">
					<g id="&lt;Group&gt;">
						<path id="&lt;Path&gt;" class="s0" d="m434.9 198.6v90"/>
						<g id="&lt;Group&gt;">
							<path id="&lt;Path&gt;" class="s0" d="m434.9 198.6c0 0-2.3 14.2-15.9 20.7"/>
							<path id="&lt;Path&gt;" class="s0" d="m434.9 219.3c0 0-2.3 14.2-15.9 20.7"/>
							<path id="&lt;Path&gt;" class="s0" d="m434.9 240c0 0-2.3 14.2-15.9 20.7"/>
						</g>
					</g>
					<g id="&lt;Group&gt;">
						<path id="&lt;Path&gt;" class="s0" d="m434.9 198.6c0 0 2.3 14.2 15.9 20.7"/>
						<path id="&lt;Path&gt;" class="s0" d="m434.9 219.3c0 0 2.3 14.2 15.9 20.7"/>
						<path id="&lt;Path&gt;" class="s0" d="m434.9 240c0 0 2.3 14.2 15.9 20.7"/>
					</g>
				</g>
			</g>
			<g id="&lt;Group&gt;">
				<path id="&lt;Path&gt;" class="s0" d="m486.8 122.1c15.5 19.1 24.2 40.6 24.2 63.3 0 44.9-33.9 84.9-87 111.2"/>
				<path id="&lt;Path&gt;" class="s0" d="m506.8 162.1h-27.4c0-11-8.9-20-20-20-11 0-20 9-20 20 0 7 3.6 13.2 9 16.7h-26.3"/>
				<path id="&lt;Path&gt;" class="s0" d="m484.6 122.1c-11 0-20 9-20 20"/>
				<path id="&lt;Path&gt;" class="s0" d="m480.3 198.6h28.6"/>
			</g>
			<g id="&lt;Group&gt;">
				<path id="&lt;Path&gt;" class="s0" d="m61.7 317.8h64.3"/>
				<path id="&lt;Path&gt;" class="s0" d="m423.1 317.8h64.3"/>
				<path id="&lt;Path&gt;" class="s0" d="m459.3 297.7h28.1"/>
				<path id="&lt;Path&gt;" class="s0" d="m60.3 297.7h28.1"/>
			</g>
			<g id="&lt;Group&gt;">
				<path id="&lt;Path&gt;" class="s1" d="m117.7 55.6c0.2-0.9 1.5-0.9 1.6 0 1 5.7 5.4 10.1 11 11 1 0.2 1 1.5 0 1.6-5.6 1-10 5.4-11 11-0.1 1-1.4 1-1.6 0-0.9-5.6-5.3-10-11-11-0.9-0.1-0.9-1.4 0-1.6 5.7-0.9 10.1-5.3 11-11z"/>
				<path id="&lt;Path&gt;" class="s1" d="m178.3 66.1c0.2-0.9 1.5-0.9 1.6 0 0.9 5.6 5.4 10 11 11 0.9 0.1 0.9 1.4 0 1.6-5.6 0.9-10.1 5.3-11 11-0.1 0.9-1.4 0.9-1.6 0-0.9-5.7-5.3-10.1-11-11-0.9-0.2-0.9-1.5 0-1.6 5.7-1 10.1-5.4 11-11z"/>
				<path id="&lt;Path&gt;" class="s1" d="m183.1 23.9c0.1-0.6 0.9-0.6 1 0 0.6 3.5 3.4 6.3 6.9 6.8 0.5 0.1 0.5 0.9 0 1-3.5 0.6-6.3 3.4-6.9 6.9-0.1 0.5-0.9 0.5-1 0-0.5-3.5-3.3-6.3-6.8-6.9-0.5-0.1-0.5-0.9 0-1 3.5-0.5 6.3-3.3 6.8-6.8z"/>
				<path id="&lt;Path&gt;" class="s1" d="m430.7 55.6c-0.1-0.9-1.4-0.9-1.6 0-0.9 5.7-5.3 10.1-11 11-0.9 0.2-0.9 1.5 0 1.6 5.7 1 10.1 5.4 11 11 0.2 1 1.5 1 1.6 0 1-5.6 5.4-10 11-11 0.9-0.1 0.9-1.4 0-1.6-5.6-0.9-10-5.3-11-11z"/>
				<path id="&lt;Path&gt;" class="s1" d="m370.2 66.1c-0.2-0.9-1.5-0.9-1.7 0-0.9 5.6-5.3 10-10.9 11-1 0.1-1 1.4 0 1.6 5.6 0.9 10 5.3 10.9 11 0.2 0.9 1.5 0.9 1.7 0 0.9-5.7 5.3-10.1 10.9-11 1-0.2 1-1.5 0-1.6-5.6-1-10-5.4-10.9-11z"/>
				<path id="&lt;Path&gt;" class="s1" d="m365.3 23.9c-0.1-0.6-0.9-0.6-1 0-0.5 3.5-3.3 6.3-6.8 6.8-0.6 0.1-0.6 0.9 0 1 3.5 0.6 6.3 3.4 6.8 6.9 0.1 0.5 0.9 0.5 1 0 0.6-3.5 3.3-6.3 6.8-6.9 0.6-0.1 0.6-0.9 0-1-3.5-0.5-6.2-3.3-6.8-6.8z"/>
			</g>
			<g id="&lt;Group&gt;">
				<path id="&lt;Path&gt;" class="s2" d="m424 296.6c-40.6-20.1-92.5-32.2-149-32.2-56.5 0-108.4 12.1-149 32.2"/>
				<path id="&lt;Path&gt;" class="s0" d="m399.6 307.2c-36.1-13.7-78.8-21.6-124.6-21.6-45.8 0-88.5 7.9-124.6 21.6"/>
				<path id="&lt;Path&gt;" class="s0" d="m365.8 317.8c-27.9-7.1-58.6-11-90.8-11-32.2 0-62.9 3.9-90.8 11"/>
				<g id="&lt;Group&gt;">
					<g id="&lt;Group&gt;">
						<path id="&lt;Path&gt;" class="s0" d="m275 264.4c28.4 0 55.7 3 80.9 8.6l0.2-0.4-81.1-175.5-81.1 175.5 0.2 0.4c25.2-5.6 52.5-8.6 80.9-8.6z"/>
					</g>
					<path id="&lt;Path&gt;" class="s0" d="m256.6 137l18.4-39.9 18.4 39.8c22.9-7.7 39.4-29.3 39.4-54.8 0-32-25.9-57.9-57.9-57.9-32 0-57.9 25.9-57.9 57.9 0 25.5 16.6 47.2 39.6 54.9z"/>
					<path id="&lt;Path&gt;" class="s2" d="m294.9 264.9v-41.8c0-10.3-8.3-18.8-18.6-18.8q-0.7 0-1.3 0-0.1 0-0.2 0c-10.3 0-18.6 8.5-18.6 18.8v41.7q9.3-0.4 18.8-0.4 10.1 0 19.9 0.5z"/>
					<path id="&lt;Path&gt;" class="s0" d="m260.4 97.1h30.3"/>
					<path id="&lt;Path&gt;" class="s0" d="m245.9 162.4h59.3"/>
					<path id="&lt;Path&gt;" class="s1" d="m275.5 237.5c0 2.3-1.8 4.2-4.1 4.2-2.3 0-4.2-1.9-4.2-4.2 0-2.3 1.9-4.1 4.2-4.1 2.3 0 4.1 1.8 4.1 4.1z"/>
					<g id="&lt;Group&gt;">
						<path id="&lt;Path&gt;" class="s0" d="m199.6 178.8h7.8 29.8"/>
						<path id="&lt;Path&gt;" class="s0" d="m208.4 240v-61.2"/>
						<path id="&lt;Path&gt;" class="s3" d="m220.1 192.3h-11.7"/>
						<path id="&lt;Path&gt;" class="s3" d="m213.4 207.3h-5"/>
					</g>
					<g id="&lt;Group&gt;">
						<path id="&lt;Path&gt;" class="s0" d="m351.2 178.8h-7.9-29.8"/>
						<path id="&lt;Path&gt;" class="s0" d="m342.4 243.6v-64.8"/>
						<path id="&lt;Path&gt;" class="s3" d="m330.7 192.3h11.7"/>
						<path id="&lt;Path&gt;" class="s3" d="m337.4 207.3h5"/>
					</g>
				</g>
			</g>
		</g>
	</g>
</svg>