<svg version="1.2" xmlns="http://www.w3.org/2000/svg" viewBox="0 0 550 550" width="550" height="550">
	<title>27402430_7340277-ai</title>
	<style>
		tspan { white-space:pre } 
		.s0 { fill: none;stroke: #231f20;stroke-linecap: round;stroke-linejoin: round;stroke-width: 6 } 
		.s1 { fill: #231f20 } 
		.s2 { fill: none;stroke: #231f20;stroke-miterlimit:10;stroke-width: 6 } 
		.s3 { fill: none;stroke: #231f20;stroke-linecap: round;stroke-linejoin: round;stroke-width: 4 } 
		.t4 { font-size: 14px;fill: #222d1c;font-weight: 700;font-family: "Quicksand-Bold", "Quicksand" } 
		.t5 { font-size: 33px;fill: #af7f40;font-weight: 700;font-family: "Quicksand-Bold", "Quicksand" } 
	</style>
	<filter id="f0">
		<feFlood flood-color="#f2f2f3" flood-opacity="1" />
		<feBlend mode="normal" in2="SourceGraphic"/>
		<feComposite in2="SourceAlpha" operator="in" />
	</filter>
	<g id="Logo White" filter="url(#f0)">
		<filter id="f1">
			<feFlood flood-color="#222d1c" flood-opacity="1" />
			<feBlend mode="normal" in2="SourceGraphic"/>
			<feComposite in2="SourceAlpha" operator="in" />
		</filter>
		<g id="OBJECTS" filter="url(#f1)">
			<g id="&lt;Group&gt;">
				<path id="&lt;Path&gt;" class="s0" d="m126 347.6c-53.1-26.3-87-66.3-87-111.2 0-22.3 8.4-43.4 23.3-62.2"/>
				<path id="&lt;Path&gt;" class="s0" d="m42.1 213.1h27.4c0-11 8.9-20 20-20 11 0 20 9 20 20 0 7-3.6 13.2-9 16.7h26.3"/>
				<path id="&lt;Path&gt;" class="s0" d="m64.3 173.1c11.1 0 20 9 20 20"/>
				<path id="&lt;Path&gt;" class="s0" d="m68.6 249.6h-28.6"/>
			</g>
			<g id="&lt;Group&gt;">
				<g id="&lt;Group&gt;">
					<path id="&lt;Path&gt;" class="s0" d="m163.2 167.8v163.7"/>
					<g id="&lt;Group&gt;">
						<path id="&lt;Path&gt;" class="s0" d="m163.2 167.8c0 0-2.3 14.2-15.9 20.7"/>
						<path id="&lt;Path&gt;" class="s0" d="m163.2 188.5c0 0-2.3 14.2-15.9 20.6"/>
						<path id="&lt;Path&gt;" class="s0" d="m163.2 209.1c0 0-2.3 14.3-15.9 20.7"/>
						<path id="&lt;Path&gt;" class="s0" d="m163.2 229.8c0 0-2.3 14.3-15.9 20.7"/>
						<path id="&lt;Path&gt;" class="s0" d="m163.2 250.5c0 0-2.3 14.2-15.9 20.7"/>
						<path id="&lt;Path&gt;" class="s0" d="m163.2 271.2c0 0-2.3 14.2-15.9 20.7"/>
						<path id="&lt;Path&gt;" class="s0" d="m163.2 291.9c0 0-2.3 14.2-15.9 20.7"/>
					</g>
					<g id="&lt;Group&gt;">
						<path id="&lt;Path&gt;" class="s0" d="m163.2 167.8c0 0 2.3 14.2 15.9 20.7"/>
						<path id="&lt;Path&gt;" class="s0" d="m163.2 188.5c0 0 2.3 14.2 15.9 20.6"/>
						<path id="&lt;Path&gt;" class="s0" d="m163.2 209.1c0 0 2.3 14.3 15.9 20.7"/>
						<path id="&lt;Path&gt;" class="s0" d="m163.2 229.8c0 0 2.3 14.3 15.9 20.7"/>
						<path id="&lt;Path&gt;" class="s0" d="m163.2 250.5c0 0 2.3 14.2 15.9 20.7"/>
						<path id="&lt;Path&gt;" class="s0" d="m163.2 271.2c0 0 2.3 14.2 15.9 20.7"/>
						<path id="&lt;Path&gt;" class="s0" d="m163.2 291.9c0 0 2.3 14.2 15.9 20.7"/>
					</g>
				</g>
				<g id="&lt;Group&gt;">
					<g id="&lt;Group&gt;">
						<path id="&lt;Path&gt;" class="s0" d="m114 249.6v90"/>
						<g id="&lt;Group&gt;">
							<path id="&lt;Path&gt;" class="s0" d="m114 249.6c0 0 2.3 14.2 15.9 20.7"/>
							<path id="&lt;Path&gt;" class="s0" d="m114 270.3c0 0 2.3 14.2 15.9 20.7"/>
							<path id="&lt;Path&gt;" class="s0" d="m114 291c0 0 2.3 14.2 15.9 20.7"/>
						</g>
					</g>
					<g id="&lt;Group&gt;">
						<path id="&lt;Path&gt;" class="s0" d="m114 249.6c0 0-2.3 14.2-15.9 20.7"/>
						<path id="&lt;Path&gt;" class="s0" d="m114 270.3c0 0-2.3 14.2-15.9 20.7"/>
						<path id="&lt;Path&gt;" class="s0" d="m114 291c0 0-2.3 14.2-15.9 20.7"/>
					</g>
				</g>
				<g id="&lt;Group&gt;">
					<path id="&lt;Path&gt;" class="s0" d="m385.7 167.8v163.7"/>
					<g id="&lt;Group&gt;">
						<path id="&lt;Path&gt;" class="s0" d="m385.7 167.8c0 0 2.3 14.2 15.9 20.7"/>
						<path id="&lt;Path&gt;" class="s0" d="m385.7 188.5c0 0 2.3 14.2 15.9 20.6"/>
						<path id="&lt;Path&gt;" class="s0" d="m385.7 209.1c0 0 2.3 14.3 15.9 20.7"/>
						<path id="&lt;Path&gt;" class="s0" d="m385.7 229.8c0 0 2.3 14.3 15.9 20.7"/>
						<path id="&lt;Path&gt;" class="s0" d="m385.7 250.5c0 0 2.3 14.2 15.9 20.7"/>
						<path id="&lt;Path&gt;" class="s0" d="m385.7 271.2c0 0 2.3 14.2 15.9 20.7"/>
						<path id="&lt;Path&gt;" class="s0" d="m385.7 291.9c0 0 2.3 14.2 15.9 20.7"/>
					</g>
					<g id="&lt;Group&gt;">
						<path id="&lt;Path&gt;" class="s0" d="m385.7 167.8c0 0-2.3 14.2-15.9 20.7"/>
						<path id="&lt;Path&gt;" class="s0" d="m385.7 188.5c0 0-2.3 14.2-15.9 20.6"/>
						<path id="&lt;Path&gt;" class="s0" d="m385.7 209.1c0 0-2.3 14.3-15.9 20.7"/>
						<path id="&lt;Path&gt;" class="s0" d="m385.7 229.8c0 0-2.3 14.3-15.9 20.7"/>
						<path id="&lt;Path&gt;" class="s0" d="m385.7 250.5c0 0-2.3 14.2-15.9 20.7"/>
						<path id="&lt;Path&gt;" class="s0" d="m385.7 271.2c0 0-2.3 14.2-15.9 20.7"/>
						<path id="&lt;Path&gt;" class="s0" d="m385.7 291.9c0 0-2.3 14.2-15.9 20.7"/>
					</g>
				</g>
				<g id="&lt;Group&gt;">
					<g id="&lt;Group&gt;">
						<path id="&lt;Path&gt;" class="s0" d="m434.9 249.6v90"/>
						<g id="&lt;Group&gt;">
							<path id="&lt;Path&gt;" class="s0" d="m434.9 249.6c0 0-2.3 14.2-15.9 20.7"/>
							<path id="&lt;Path&gt;" class="s0" d="m434.9 270.3c0 0-2.3 14.2-15.9 20.7"/>
							<path id="&lt;Path&gt;" class="s0" d="m434.9 291c0 0-2.3 14.2-15.9 20.7"/>
						</g>
					</g>
					<g id="&lt;Group&gt;">
						<path id="&lt;Path&gt;" class="s0" d="m434.9 249.6c0 0 2.3 14.2 15.9 20.7"/>
						<path id="&lt;Path&gt;" class="s0" d="m434.9 270.3c0 0 2.3 14.2 15.9 20.7"/>
						<path id="&lt;Path&gt;" class="s0" d="m434.9 291c0 0 2.3 14.2 15.9 20.7"/>
					</g>
				</g>
			</g>
			<g id="&lt;Group&gt;">
				<path id="&lt;Path&gt;" class="s0" d="m486.8 173.1c15.5 19.1 24.2 40.6 24.2 63.3 0 44.9-33.9 84.9-87 111.2"/>
				<path id="&lt;Path&gt;" class="s0" d="m506.8 213.1h-27.4c0-11-8.9-20-20-20-11 0-20 9-20 20 0 7 3.6 13.2 9 16.7h-26.3"/>
				<path id="&lt;Path&gt;" class="s0" d="m484.6 173.1c-11 0-20 9-20 20"/>
				<path id="&lt;Path&gt;" class="s0" d="m480.3 249.6h28.6"/>
			</g>
			<path id="&lt;Path&gt;" class="s0" d="m82.5 456.2h376.8"/>
			<g id="&lt;Group&gt;">
				<path id="&lt;Path&gt;" class="s0" d="m61.7 368.8h64.3"/>
				<path id="&lt;Path&gt;" class="s0" d="m423.1 368.8h64.3"/>
				<path id="&lt;Path&gt;" class="s0" d="m459.3 348.7h28.1"/>
				<path id="&lt;Path&gt;" class="s0" d="m60.3 348.7h28.1"/>
			</g>
			<g id="&lt;Group&gt;">
				<path id="&lt;Path&gt;" class="s1" d="m117.7 106.6c0.2-0.9 1.5-0.9 1.6 0 1 5.7 5.4 10.1 11 11 1 0.2 1 1.5 0 1.6-5.6 1-10 5.4-11 11-0.1 1-1.4 1-1.6 0-0.9-5.6-5.3-10-11-11-0.9-0.1-0.9-1.4 0-1.6 5.7-0.9 10.1-5.3 11-11z"/>
				<path id="&lt;Path&gt;" class="s1" d="m178.3 117.1c0.2-0.9 1.5-0.9 1.6 0 0.9 5.6 5.4 10 11 11 0.9 0.1 0.9 1.4 0 1.6-5.6 0.9-10.1 5.3-11 11-0.1 0.9-1.4 0.9-1.6 0-0.9-5.7-5.3-10.1-11-11-0.9-0.2-0.9-1.5 0-1.6 5.7-1 10.1-5.4 11-11z"/>
				<path id="&lt;Path&gt;" class="s1" d="m183.1 74.9c0.1-0.6 0.9-0.6 1 0 0.6 3.5 3.4 6.3 6.9 6.8 0.5 0.1 0.5 0.9 0 1-3.5 0.6-6.3 3.4-6.9 6.9-0.1 0.5-0.9 0.5-1 0-0.5-3.5-3.3-6.3-6.8-6.9-0.5-0.1-0.5-0.9 0-1 3.5-0.5 6.3-3.3 6.8-6.8z"/>
				<path id="&lt;Path&gt;" class="s1" d="m430.7 106.6c-0.1-0.9-1.4-0.9-1.6 0-0.9 5.7-5.3 10.1-11 11-0.9 0.2-0.9 1.5 0 1.6 5.7 1 10.1 5.4 11 11 0.2 1 1.5 1 1.6 0 1-5.6 5.4-10 11-11 0.9-0.1 0.9-1.4 0-1.6-5.6-0.9-10-5.3-11-11z"/>
				<path id="&lt;Path&gt;" class="s1" d="m370.2 117.1c-0.2-0.9-1.5-0.9-1.7 0-0.9 5.6-5.3 10-10.9 11-1 0.1-1 1.4 0 1.6 5.6 0.9 10 5.3 10.9 11 0.2 0.9 1.5 0.9 1.7 0 0.9-5.7 5.3-10.1 10.9-11 1-0.2 1-1.5 0-1.6-5.6-1-10-5.4-10.9-11z"/>
				<path id="&lt;Path&gt;" class="s1" d="m365.3 74.9c-0.1-0.6-0.9-0.6-1 0-0.5 3.5-3.3 6.3-6.8 6.8-0.6 0.1-0.6 0.9 0 1 3.5 0.6 6.3 3.4 6.8 6.9 0.1 0.5 0.9 0.5 1 0 0.6-3.5 3.3-6.3 6.8-6.9 0.6-0.1 0.6-0.9 0-1-3.5-0.5-6.2-3.3-6.8-6.8z"/>
			</g>
			<g id="&lt;Group&gt;">
				<path id="&lt;Path&gt;" class="s2" d="m424 347.6c-40.6-20.1-92.5-32.2-149-32.2-56.5 0-108.4 12.1-149 32.2"/>
				<path id="&lt;Path&gt;" class="s0" d="m399.6 358.2c-36.1-13.7-78.8-21.6-124.6-21.6-45.8 0-88.5 7.9-124.6 21.6"/>
				<path id="&lt;Path&gt;" class="s0" d="m365.8 368.8c-27.9-7.1-58.6-11-90.8-11-32.2 0-62.9 3.9-90.8 11"/>
				<g id="&lt;Group&gt;">
					<g id="&lt;Group&gt;">
						<path id="&lt;Path&gt;" class="s0" d="m275 315.4c28.4 0 55.7 3 80.9 8.6l0.2-0.4-81.1-175.5-81.1 175.5 0.2 0.4c25.2-5.6 52.5-8.6 80.9-8.6z"/>
					</g>
					<path id="&lt;Path&gt;" class="s0" d="m256.6 188l18.4-39.9 18.4 39.8c22.9-7.7 39.4-29.3 39.4-54.8 0-32-25.9-57.9-57.9-57.9-32 0-57.9 25.9-57.9 57.9 0 25.5 16.6 47.2 39.6 54.9z"/>
					<path id="&lt;Path&gt;" class="s2" d="m294.9 315.9v-41.8c0-10.3-8.3-18.8-18.6-18.8q-0.7 0-1.3 0-0.1 0-0.2 0c-10.3 0-18.6 8.5-18.6 18.8v41.7q9.3-0.4 18.8-0.4 10.1 0 19.9 0.5z"/>
					<path id="&lt;Path&gt;" class="s0" d="m260.4 148.1h30.3"/>
					<path id="&lt;Path&gt;" class="s0" d="m245.9 213.4h59.3"/>
					<path id="&lt;Path&gt;" class="s1" d="m275.5 288.5c0 2.3-1.8 4.2-4.1 4.2-2.3 0-4.2-1.9-4.2-4.2 0-2.3 1.9-4.1 4.2-4.1 2.3 0 4.1 1.8 4.1 4.1z"/>
					<g id="&lt;Group&gt;">
						<path id="&lt;Path&gt;" class="s0" d="m199.6 229.8h7.8 29.8"/>
						<path id="&lt;Path&gt;" class="s0" d="m208.4 291v-61.2"/>
						<path id="&lt;Path&gt;" class="s3" d="m220.1 243.3h-11.7"/>
						<path id="&lt;Path&gt;" class="s3" d="m213.4 258.3h-5"/>
					</g>
					<g id="&lt;Group&gt;">
						<path id="&lt;Path&gt;" class="s0" d="m351.2 229.8h-7.9-29.8"/>
						<path id="&lt;Path&gt;" class="s0" d="m342.4 294.6v-64.8"/>
						<path id="&lt;Path&gt;" class="s3" d="m330.7 243.3h11.7"/>
						<path id="&lt;Path&gt;" class="s3" d="m337.4 258.3h5"/>
					</g>
				</g>
			</g>
			<g id="&lt;Group&gt;">
				<path id="&lt;Path&gt;" class="s1" d="m82.5 400.6l4.4 8 8 4.4-8 4.3-4.4 8.1-4.4-8.1-8-4.3 8-4.4z"/>
				<path id="&lt;Path&gt;" class="s1" d="m455.3 400.6l4.3 8 8.1 4.4-8.1 4.3-4.3 8.1-4.4-8.1-8.1-4.3 8.1-4.4z"/>
			</g>
		</g>
		<g id="TEXT">
			<text id="RANGE HOTELS" style="transform: matrix(2,0,0,2,273.875,496.272)" >
				<tspan x="-46" y="0" class="t4" dx="0" >R</tspan><tspan  y="0" class="t4" dx="0" >A</tspan><tspan  y="0" class="t4" dx="0" >N</tspan><tspan  y="0" class="t4" dx="0" >G</tspan><tspan  y="0" class="t4" dx="0" >E</tspan><tspan  y="0" class="t4" dx="0" > </tspan><tspan  y="0" class="t4" dx="0" >H</tspan><tspan  y="0" class="t4" dx="0" >O</tspan><tspan  y="0" class="t4" dx="0" >T</tspan><tspan  y="0" class="t4" dx="0" >E</tspan><tspan  y="0" class="t4" dx="0" >L</tspan><tspan  y="0" class="t4" dx="0 -1" >S
</tspan>
			</text>
			<text id="WINDSOR" style="transform: matrix(2,0,0,2,274.24,438.795)" >
				<tspan x="-78.8" y="0" class="t5">W</tspan><tspan  y="0" class="t5">I</tspan><tspan  y="0" class="t5">N</tspan><tspan  y="0" class="t5">D</tspan><tspan  y="0" class="t5">S</tspan><tspan  y="0" class="t5">O</tspan><tspan  y="0" class="t5">R
</tspan>
			</text>
		</g>
	</g>
</svg>